<?xml version="1.0" standalone="no"?>
<!DOCTYPE svg PUBLIC "-//W3C//DTD SVG 20010904//EN"
 "http://www.w3.org/TR/2001/REC-SVG-20010904/DTD/svg10.dtd">
<svg version="1.1" xmlns="http://www.w3.org/2000/svg"
 width="218.000000pt" height="218.000000pt" viewBox="0 0 208.000000 208.000000">

<g transform="translate(0.000000,208.000000) scale(0.100000,-0.100000)"
fill="#000000" stroke="none">
<path d="M240 1987 c-49 -16 -133 -102 -148 -153 -17 -59 -17 -1529 0 -1588
16 -55 99 -138 154 -154 59 -17 1529 -17 1588 0 55 16 138 99 154 154 17 59
17 1529 0 1588 -16 55 -99 138 -154 154 -56 16 -1542 15 -1594 -1z m680 -497
c11 -6 24 -18 29 -28 5 -9 35 -165 66 -347 32 -181 61 -333 64 -337 9 -10 118
146 164 235 53 101 81 197 74 255 -5 47 -29 77 -96 125 l-25 17 23 24 c38 40
117 69 175 63 41 -4 55 -11 83 -41 30 -32 33 -42 33 -95 0 -137 -91 -308 -337
-632 -113 -150 -111 -149 -227 -149 l-61 0 -63 363 c-35 199 -66 372 -69 385
-5 21 -10 22 -95 22 l-89 0 3 37 3 38 130 37 c136 39 184 45 215 28z"/>
</g>
</svg>
